
                <svg id="trend-chart" width="660" height="400" title="Stack Overflow Trends Chart" version="1.1" xmlns="http://www.w3.org/2000/svg"><g></g><g class="chart-area" transform="translate(100, 20)"><g transform="translate(0,300)" fill="none" font-size="10" font-family="sans-serif" text-anchor="middle"><path class="domain" stroke="#000" d="M0.5,6V0.5H410.5V6"></path><g class="tick" opacity="1" transform="translate(19.27121723996724,0)"><line stroke="#000" y2="6" x1="0.5" x2="0.5"></line><text fill="#000" y="9" x="0.5" dy="0.71em" style="font-size: 12px;">2009</text></g><g class="tick" opacity="1" transform="translate(65.23251945126945,0)"><line stroke="#000" y2="6" x1="0.5" x2="0.5"></line><text fill="#000" y="9" x="0.5" dy="0.71em" style="font-size: 12px;">2010</text></g><g class="tick" opacity="1" transform="translate(111.19382166257166,0)"><line stroke="#000" y2="6" x1="0.5" x2="0.5"></line><text fill="#000" y="9" x="0.5" dy="0.71em" style="font-size: 12px;">2011</text></g><g class="tick" opacity="1" transform="translate(157.15512387387386,0)"><line stroke="#000" y2="6" x1="0.5" x2="0.5"></line><text fill="#000" y="9" x="0.5" dy="0.71em" style="font-size: 12px;">2012</text></g><g class="tick" opacity="1" transform="translate(203.24234746109747,0)"><line stroke="#000" y2="6" x1="0.5" x2="0.5"></line><text fill="#000" y="9" x="0.5" dy="0.71em" style="font-size: 12px;">2013</text></g><g class="tick" opacity="1" transform="translate(249.20364967239968,0)"><line stroke="#000" y2="6" x1="0.5" x2="0.5"></line><text fill="#000" y="9" x="0.5" dy="0.71em" style="font-size: 12px;">2014</text></g><g class="tick" opacity="1" transform="translate(295.16495188370186,0)"><line stroke="#000" y2="6" x1="0.5" x2="0.5"></line><text fill="#000" y="9" x="0.5" dy="0.71em" style="font-size: 12px;">2015</text></g><g class="tick" opacity="1" transform="translate(341.1262540950041,0)"><line stroke="#000" y2="6" x1="0.5" x2="0.5"></line><text fill="#000" y="9" x="0.5" dy="0.71em" style="font-size: 12px;">2016</text></g><g class="tick" opacity="1" transform="translate(387.2134776822277,0)"><line stroke="#000" y2="6" x1="0.5" x2="0.5"></line><text fill="#000" y="9" x="0.5" dy="0.71em" style="font-size: 12px;">2017</text></g></g><g class="grid-lines" transform="translate(0,300)" fill="none" font-size="10" font-family="sans-serif" text-anchor="middle"><path class="domain" stroke="#000" d="M0.5,-300V0.5H410.5V-300"></path><g class="tick" opacity="1" transform="translate(19.27121723996724,0)"><line stroke="#000" y2="-300" x1="0.5" x2="0.5" style="stroke: #ccc; fill: none;"></line></g><g class="tick" opacity="1" transform="translate(65.23251945126945,0)"><line stroke="#000" y2="-300" x1="0.5" x2="0.5" style="stroke: #ccc; fill: none;"></line></g><g class="tick" opacity="1" transform="translate(111.19382166257166,0)"><line stroke="#000" y2="-300" x1="0.5" x2="0.5" style="stroke: #ccc; fill: none;"></line></g><g class="tick" opacity="1" transform="translate(157.15512387387386,0)"><line stroke="#000" y2="-300" x1="0.5" x2="0.5" style="stroke: #ccc; fill: none;"></line></g><g class="tick" opacity="1" transform="translate(203.24234746109747,0)"><line stroke="#000" y2="-300" x1="0.5" x2="0.5" style="stroke: #ccc; fill: none;"></line></g><g class="tick" opacity="1" transform="translate(249.20364967239968,0)"><line stroke="#000" y2="-300" x1="0.5" x2="0.5" style="stroke: #ccc; fill: none;"></line></g><g class="tick" opacity="1" transform="translate(295.16495188370186,0)"><line stroke="#000" y2="-300" x1="0.5" x2="0.5" style="stroke: #ccc; fill: none;"></line></g><g class="tick" opacity="1" transform="translate(341.1262540950041,0)"><line stroke="#000" y2="-300" x1="0.5" x2="0.5" style="stroke: #ccc; fill: none;"></line></g><g class="tick" opacity="1" transform="translate(387.2134776822277,0)"><line stroke="#000" y2="-300" x1="0.5" x2="0.5" style="stroke: #ccc; fill: none;"></line></g></g><text x="205" y="360" class="axis-label x-axis-label" style="text-anchor: middle; font-weight: bold;">Year</text><g fill="none" font-size="10" font-family="sans-serif" text-anchor="end"><path class="domain" stroke="#000" d="M-6,300.5H0.5V0.5H-6"></path><g class="tick" opacity="1" transform="translate(0,300)"><line stroke="#000" x2="-6" y1="0.5" y2="0.5"></line><text fill="#000" x="-9" y="0.5" dy="0.32em" style="font-size: 12px;">0.00%</text></g><g class="tick" opacity="1" transform="translate(0,270)"><line stroke="#000" x2="-6" y1="0.5" y2="0.5"></line><text fill="#000" x="-9" y="0.5" dy="0.32em" style="font-size: 12px;">0.20%</text></g><g class="tick" opacity="1" transform="translate(0,240)"><line stroke="#000" x2="-6" y1="0.5" y2="0.5"></line><text fill="#000" x="-9" y="0.5" dy="0.32em" style="font-size: 12px;">0.40%</text></g><g class="tick" opacity="1" transform="translate(0,210)"><line stroke="#000" x2="-6" y1="0.5" y2="0.5"></line><text fill="#000" x="-9" y="0.5" dy="0.32em" style="font-size: 12px;">0.60%</text></g><g class="tick" opacity="1" transform="translate(0,180)"><line stroke="#000" x2="-6" y1="0.5" y2="0.5"></line><text fill="#000" x="-9" y="0.5" dy="0.32em" style="font-size: 12px;">0.80%</text></g><g class="tick" opacity="1" transform="translate(0,150)"><line stroke="#000" x2="-6" y1="0.5" y2="0.5"></line><text fill="#000" x="-9" y="0.5" dy="0.32em" style="font-size: 12px;">1.00%</text></g><g class="tick" opacity="1" transform="translate(0,120)"><line stroke="#000" x2="-6" y1="0.5" y2="0.5"></line><text fill="#000" x="-9" y="0.5" dy="0.32em" style="font-size: 12px;">1.20%</text></g><g class="tick" opacity="1" transform="translate(0,90)"><line stroke="#000" x2="-6" y1="0.5" y2="0.5"></line><text fill="#000" x="-9" y="0.5" dy="0.32em" style="font-size: 12px;">1.40%</text></g><g class="tick" opacity="1" transform="translate(0,60)"><line stroke="#000" x2="-6" y1="0.5" y2="0.5"></line><text fill="#000" x="-9" y="0.5" dy="0.32em" style="font-size: 12px;">1.60%</text></g><g class="tick" opacity="1" transform="translate(0,30)"><line stroke="#000" x2="-6" y1="0.5" y2="0.5"></line><text fill="#000" x="-9" y="0.5" dy="0.32em" style="font-size: 12px;">1.80%</text></g><g class="tick" opacity="1" transform="translate(0,0)"><line stroke="#000" x2="-6" y1="0.5" y2="0.5"></line><text fill="#000" x="-9" y="0.5" dy="0.32em" style="font-size: 12px;">2.00%</text></g></g><g class="grid-lines" fill="none" font-size="10" font-family="sans-serif" text-anchor="end"><path class="domain" stroke="#000" d="M410,300.5H0.5V0.5H410"></path><g class="tick" opacity="1" transform="translate(0,300)"><line stroke="#000" x2="410" y1="0.5" y2="0.5" style="stroke: #ccc; fill: none;"></line></g><g class="tick" opacity="1" transform="translate(0,270)"><line stroke="#000" x2="410" y1="0.5" y2="0.5" style="stroke: #ccc; fill: none;"></line></g><g class="tick" opacity="1" transform="translate(0,240)"><line stroke="#000" x2="410" y1="0.5" y2="0.5" style="stroke: #ccc; fill: none;"></line></g><g class="tick" opacity="1" transform="translate(0,210)"><line stroke="#000" x2="410" y1="0.5" y2="0.5" style="stroke: #ccc; fill: none;"></line></g><g class="tick" opacity="1" transform="translate(0,180)"><line stroke="#000" x2="410" y1="0.5" y2="0.5" style="stroke: #ccc; fill: none;"></line></g><g class="tick" opacity="1" transform="translate(0,150)"><line stroke="#000" x2="410" y1="0.5" y2="0.5" style="stroke: #ccc; fill: none;"></line></g><g class="tick" opacity="1" transform="translate(0,120)"><line stroke="#000" x2="410" y1="0.5" y2="0.5" style="stroke: #ccc; fill: none;"></line></g><g class="tick" opacity="1" transform="translate(0,90)"><line stroke="#000" x2="410" y1="0.5" y2="0.5" style="stroke: #ccc; fill: none;"></line></g><g class="tick" opacity="1" transform="translate(0,60)"><line stroke="#000" x2="410" y1="0.5" y2="0.5" style="stroke: #ccc; fill: none;"></line></g><g class="tick" opacity="1" transform="translate(0,30)"><line stroke="#000" x2="410" y1="0.5" y2="0.5" style="stroke: #ccc; fill: none;"></line></g><g class="tick" opacity="1" transform="translate(0,0)"><line stroke="#000" x2="410" y1="0.5" y2="0.5" style="stroke: #ccc; fill: none;"></line></g></g><g class="lines"><path class="line" d="M3.9035626535626538,266.9475L7.681203931203931,245.73L11.584766584766585,259.479L15.367654586404585,253.719L19.27121723996724,235.8825L23.174779893529895,251.316L26.70057841932842,250.182L30.598894348894348,234.2985L34.37653562653563,236.35649999999998L38.28009828009828,231.5295L42.05773955773956,235.713L45.96130221130221,230.322L49.86486486486487,219.684L53.64250614250615,231.858L57.546068796068795,230.781L61.328956797706795,220.8L65.23251945126945,223.428L69.1360821048321,219.966L72.66188063063062,216.24900000000002L76.56019656019656,207.618L80.33783783783784,212.80349999999999L84.2414004914005,216.645L88.01904176904176,206.30849999999998L91.92260442260442,208.8885L95.82616707616708,203.13L99.60380835380836,190.5765L103.50737100737102,190.539L107.29025900900902,189.651L111.19382166257166,184.4895L115.09738431613431,176.0685L118.62318284193283,189.99599999999998L122.52149877149877,177.56100000000004L126.29914004914005,165.0975L130.20270270270268,159.41400000000002L133.98034398034397,158.1195L137.88390663390663,156.0555L141.7874692874693,159.17999999999998L145.5651105651106,167.25750000000002L149.46867321867322,160.776L153.25156122031123,151.617L157.15512387387386,163.50450000000004L161.05868652743652,141.6915L164.71040642915642,139.0995L168.60872235872236,139.6395L172.38636363636365,134.07449999999997L176.28992628992629,129.49349999999998L180.06756756756758,133.88400000000001L183.9711302211302,143.7045L187.87469287469287,138.7335L191.65233415233416,131.55L195.5558968058968,132.68699999999998L199.3387848075348,131.98049999999998L203.24234746109747,124.16400000000002L207.14591011466013,118.41300000000001L210.67170864045866,106.1745L214.5700245700246,114.27000000000001L218.34766584766584,111.36449999999999L222.25122850122852,105.86100000000002L226.02886977886976,108.03L229.93243243243245,93.30000000000001L233.8359950859951,94.281L237.61363636363637,89.70149999999998L241.51719901719903,90.35849999999999L245.30008701883702,82.69950000000006L249.20364967239968,77.07150000000001L253.10721232596234,66.04350000000002L256.63301085176084,66.23250000000002L260.5313267813268,63.78450000000001L264.3089680589681,73.52100000000002L268.21253071253074,51.331500000000005L271.99017199017203,48.8895L275.89373464373466,52.837500000000034L279.7972972972973,61.300500000000056L283.5749385749386,67.16550000000001L287.4785012285012,62.16150000000002L291.26138923013923,67.1055L295.16495188370186,53.988L299.06851453726455,59.920500000000004L302.59431306306305,47.609999999999985L306.492628992629,50.474999999999994L310.27027027027026,36.41550000000001L314.17383292383295,40.53450000000004L317.95147420147424,24.550500000000056L321.8550368550369,33.043499999999995L325.7585995085995,44.71350000000004L329.5362407862408,37.49100000000004L333.4398034398034,28.572000000000003L337.22269144144144,31.401000000000067L341.1262540950041,25.744500000000016L345.02981674856676,18.021000000000015L348.68153665028666,26.260500000000036L352.57985257985257,19.58699999999999L356.35749385749386,25.062000000000012L360.2610565110565,16.227000000000032L364.0386977886978,7.923000000000059L367.9422604422604,7.933500000000038L371.8458230958231,35.176499999999976L375.62346437346434,43.48649999999998L379.52702702702703,25.916999999999973L383.30991502866505,33.12900000000002L387.2134776822277,22.064999999999998L391.1170403357903,27.452999999999975L394.64283886158887,21.847499999999968L398.5411547911548,25.626000000000033L402.3187960687961,18.081000000000074L406.2223587223587,21.964499999999987L410,19.139999999999986" data-legend="json" style="stroke: rgb(31, 119, 180); fill: none;"></path><path class="line" d="M3.9035626535626538,41.77199999999999L7.681203931203931,50.75399999999999L11.584766584766585,42.976500000000044L15.367654586404585,75.9015L19.27121723996724,81.62700000000001L23.174779893529895,73.36350000000002L26.70057841932842,63.89999999999998L30.598894348894348,66.2415L34.37653562653563,87.279L38.28009828009828,38.136000000000024L42.05773955773956,61.99949999999998L45.96130221130221,63.81600000000003L49.86486486486487,63.08850000000004L53.64250614250615,73.94549999999998L57.546068796068795,88.10999999999999L61.328956797706795,68.66999999999999L65.23251945126945,92.727L69.1360821048321,79.40699999999998L72.66188063063062,88.7775L76.56019656019656,104.8725L80.33783783783784,92.26499999999999L84.2414004914005,79.66649999999998L88.01904176904176,96.79799999999997L91.92260442260442,98.9505L95.82616707616708,104.32650000000001L99.60380835380836,100.161L103.50737100737102,79.1685L107.29025900900902,100.09650000000002L111.19382166257166,92.08050000000003L115.09738431613431,108.5025L118.62318284193283,105.2655L122.52149877149877,94.344L126.29914004914005,90.37950000000001L130.20270270270268,75.68549999999999L133.98034398034397,90.10499999999999L137.88390663390663,94.2465L141.7874692874693,113.48999999999998L145.5651105651106,102.048L149.46867321867322,117.1575L153.25156122031123,112.7475L157.15512387387386,115.263L161.05868652743652,106.644L164.71040642915642,118.2885L168.60872235872236,114.96000000000001L172.38636363636365,101.04150000000001L176.28992628992629,121.18799999999999L180.06756756756758,113.97150000000002L183.9711302211302,118.65900000000002L187.87469287469287,122.48399999999998L191.65233415233416,129.099L195.5558968058968,133.284L199.3387848075348,142.611L203.24234746109747,136.95600000000002L207.14591011466013,134.982L210.67170864045866,145.14000000000001L214.5700245700246,127.197L218.34766584766584,133.9665L222.25122850122852,138.1245L226.02886977886976,138.9615L229.93243243243245,138.93599999999998L233.8359950859951,113.9745L237.61363636363637,123.225L241.51719901719903,114.92849999999999L245.30008701883702,117.31799999999998L249.20364967239968,109.773L253.10721232596234,114.98850000000002L256.63301085176084,126.40349999999998L260.5313267813268,124.59L264.3089680589681,115.69649999999999L268.21253071253074,115.50150000000002L271.99017199017203,121.875L275.89373464373466,124.50450000000001L279.7972972972973,128.7195L283.5749385749386,133.76250000000002L287.4785012285012,131.2455L291.26138923013923,129.834L295.16495188370186,138.67049999999998L299.06851453726455,136.488L302.59431306306305,135.96599999999998L306.492628992629,138.603L310.27027027027026,139.7775L314.17383292383295,129.237L317.95147420147424,133.7835L321.8550368550369,138.984L325.7585995085995,149.32199999999997L329.5362407862408,149.4555L333.4398034398034,146.076L337.22269144144144,151.875L341.1262540950041,147.85199999999998L345.02981674856676,151.1895L348.68153665028666,143.5785L352.57985257985257,155.586L356.35749385749386,151.5945L360.2610565110565,146.6805L364.0386977886978,149.90550000000002L367.9422604422604,153.85199999999998L371.8458230958231,161.316L375.62346437346434,161.2365L379.52702702702703,160.656L383.30991502866505,161.79L387.2134776822277,163.15800000000002L391.1170403357903,156.4845L394.64283886158887,164.034L398.5411547911548,168.4035L402.3187960687961,163.97400000000002L406.2223587223587,163.785L410,173.226" data-legend="xml" style="stroke: rgb(255, 127, 14); fill: none;"></path><path class="line" d="M3.9035626535626538,298.968L7.681203931203931,300L11.584766584766585,296.5275L15.367654586404585,295.1295L19.27121723996724,295.3545L23.174779893529895,297.483L26.70057841932842,296.391L30.598894348894348,297.9255L34.37653562653563,298.281L38.28009828009828,297.387L42.05773955773956,296.3535L45.96130221130221,297.738L49.86486486486487,295.962L53.64250614250615,297.96L57.546068796068795,296.925L61.328956797706795,296.0805L65.23251945126945,296.7L69.1360821048321,298.6785L72.66188063063062,296.0265L76.56019656019656,298.8165L80.33783783783784,297.1515L84.2414004914005,296.019L88.01904176904176,297.567L91.92260442260442,296.514L95.82616707616708,298.068L99.60380835380836,296.9865L103.50737100737102,296.8185L107.29025900900902,298.3035L111.19382166257166,296.4885L115.09738431613431,297.156L118.62318284193283,297.5175L122.52149877149877,297.2325L126.29914004914005,296.478L130.20270270270268,296.289L133.98034398034397,298.245L137.88390663390663,295.743L141.7874692874693,297.6945L145.5651105651106,295.9335L149.46867321867322,296.625L153.25156122031123,295.7445L157.15512387387386,297.0885L161.05868652743652,296.3295L164.71040642915642,298.467L168.60872235872236,297.0435L172.38636363636365,296.73L176.28992628992629,296.634L180.06756756756758,296.802L183.9711302211302,296.883L187.87469287469287,296.106L191.65233415233416,297.648L195.5558968058968,297.2175L199.3387848075348,296.313L203.24234746109747,297.684L207.14591011466013,297.444L210.67170864045866,297.4875L214.5700245700246,297.8745L218.34766584766584,297.186L222.25122850122852,296.9505L226.02886977886976,296.85L229.93243243243245,297.327L233.8359950859951,296.985L237.61363636363637,296.9745L241.51719901719903,297.003L245.30008701883702,298.0485L249.20364967239968,296.8155L253.10721232596234,297.4245L256.63301085176084,297.9555L260.5313267813268,296.8365L264.3089680589681,297.4275L268.21253071253074,296.6715L271.99017199017203,297.1905L275.89373464373466,296.238L279.7972972972973,297.2655L283.5749385749386,297.6285L287.4785012285012,296.3085L291.26138923013923,297.5475L295.16495188370186,296.469L299.06851453726455,297.9075L302.59431306306305,296.9085L306.492628992629,297.138L310.27027027027026,296.838L314.17383292383295,295.5465L317.95147420147424,296.091L321.8550368550369,295.7085L325.7585995085995,296.451L329.5362407862408,297.7965L333.4398034398034,296.8695L337.22269144144144,296.5125L341.1262540950041,297.0045L345.02981674856676,296.8095L348.68153665028666,296.73L352.57985257985257,295.458L356.35749385749386,295.6725L360.2610565110565,295.7925L364.0386977886978,294.288L367.9422604422604,295.4025L371.8458230958231,295.869L375.62346437346434,295.095L379.52702702702703,294.7365L383.30991502866505,295.227L387.2134776822277,295.164L391.1170403357903,295.5165L394.64283886158887,295.116L398.5411547911548,294.0195L402.3187960687961,294.081L406.2223587223587,295.035L410,294.936" data-legend="protocol-buffers" style="stroke: rgb(44, 160, 44); fill: none;"></path><path class="line" d="M3.9035626535626538,296.9025L7.681203931203931,292.965L11.584766584766585,297.6855L15.367654586404585,295.1295L19.27121723996724,292.566L23.174779893529895,294.1245L26.70057841932842,298.557L30.598894348894348,297.234L34.37653562653563,295.9875L38.28009828009828,296.865L42.05773955773956,298.1775L45.96130221130221,296.3805L49.86486486486487,297.7575L53.64250614250615,296.328L57.546068796068795,296.925L61.328956797706795,296.472L65.23251945126945,297.36L69.1360821048321,293.3865L72.66188063063062,295.1745L76.56019656019656,297.0405L80.33783783783784,295.7265L84.2414004914005,296.55L88.01904176904176,295.134L91.92260442260442,295.584L95.82616707616708,296.619L99.60380835380836,292.35L103.50737100737102,293.424L107.29025900900902,297.03L111.19382166257166,297.228L115.09738431613431,293.244L118.62318284193283,296.202L122.52149877149877,296.463L126.29914004914005,295.3035L130.20270270270268,295.2495L133.98034398034397,295.7595L137.88390663390663,295.056L141.7874692874693,296.397L145.5651105651106,297.096L149.46867321867322,296.22L153.25156122031123,295.7445L157.15512387387386,294.303L161.05868652743652,296.2125L164.71040642915642,295.5105L168.60872235872236,296.703L172.38636363636365,295.8585L176.28992628992629,295.9605L180.06756756756758,295.5645L183.9711302211302,295.9485L187.87469287469287,295.9935L191.65233415233416,296.667L195.5558968058968,295.428L199.3387848075348,295.77L203.24234746109747,296.0145L207.14591011466013,295.551L210.67170864045866,297.654L214.5700245700246,297.279L218.34766584766584,297.45L222.25122850122852,297.8745L226.02886977886976,296.766L229.93243243243245,295.9455L233.8359950859951,296.541L237.61363636363637,297.453L241.51719901719903,297.1695L245.30008701883702,297.426L249.20364967239968,296.1945L253.10721232596234,297.2685L256.63301085176084,297.321L260.5313267813268,295.932L264.3089680589681,295.518L268.21253071253074,295.7715L271.99017199017203,294.876L275.89373464373466,295.791L279.7972972972973,295.4115L283.5749385749386,295.425L287.4785012285012,296.046L291.26138923013923,296.133L295.16495188370186,294.879L299.06851453726455,296.2515L302.59431306306305,294.744L306.492628992629,295.977L310.27027027027026,294.5445L314.17383292383295,293.202L317.95147420147424,295.4895L321.8550368550369,295.2225L325.7585995085995,294.552L329.5362407862408,294.2535L333.4398034398034,293.9025L337.22269144144144,293.619L341.1262540950041,293.685L345.02981674856676,294.942L348.68153665028666,294.186L352.57985257985257,293.595L356.35749385749386,294.204L360.2610565110565,293.649L364.0386977886978,293.2125L367.9422604422604,293.103L371.8458230958231,293.6895L375.62346437346434,295.6065L379.52702702702703,294.7365L383.30991502866505,295.386L387.2134776822277,294.723L391.1170403357903,293.9715L394.64283886158887,294.9255L398.5411547911548,296.9385L402.3187960687961,295.6455L406.2223587223587,294.7515L410,294.7305" data-legend="yaml" style="stroke: rgb(214, 39, 40); fill: none;"></path><path class="line" d="M3.9035626535626538,280.3755L7.681203931203931,273.87L11.584766584766585,280.3185L15.367654586404585,276.8595L19.27121723996724,277.698L23.174779893529895,283.2135L26.70057841932842,283.395L30.598894348894348,275.103L34.37653562653563,281.6535L38.28009828009828,280.662L42.05773955773956,278.571L45.96130221130221,280.092L49.86486486486487,279.81L53.64250614250615,280.0065L57.546068796068795,273.4665L61.328956797706795,281.181L65.23251945126945,283.8285L69.1360821048321,278.835L72.66188063063062,276.4365L76.56019656019656,282.2355L80.33783783783784,275.7795L84.2414004914005,275.313L88.01904176904176,268.851L91.92260442260442,278.6175L95.82616707616708,280.91700000000003L99.60380835380836,279.3675L103.50737100737102,278.151L107.29025900900902,280.689L111.19382166257166,271.7235L115.09738431613431,277.5975L118.62318284193283,276.189L122.52149877149877,277.5435L126.29914004914005,274.899L130.20270270270268,278.3265L133.98034398034397,272.9415L137.88390663390663,275.0025L141.7874692874693,279.1005L145.5651105651106,273.132L149.46867321867322,275.559L153.25156122031123,273.4725L157.15512387387386,273.9165L161.05868652743652,276.7935L164.71040642915642,275.904L168.60872235872236,275.20799999999997L172.38636363636365,269.9115L176.28992628992629,274.1835L180.06756756756758,268.119L183.9711302211302,267.0585L187.87469287469287,271.62L191.65233415233416,270.39L195.5558968058968,271.071L199.3387848075348,269.304L203.24234746109747,268.578L207.14591011466013,266.202L210.67170864045866,265.8945L214.5700245700246,263.3475L218.34766584766584,265.527L222.25122850122852,255.6255L226.02886977886976,259.368L229.93243243243245,257.988L233.8359950859951,256.266L237.61363636363637,245.69400000000002L241.51719901719903,245.9445L245.30008701883702,255.2625L249.20364967239968,247.3365L253.10721232596234,245.7465L256.63301085176084,244.55700000000002L260.5313267813268,246.051L264.3089680589681,248.445L268.21253071253074,240.3315L271.99017199017203,239.2485L275.89373464373466,244.638L279.7972972972973,248.202L283.5749385749386,248.232L287.4785012285012,245.1555L291.26138923013923,245.007L295.16495188370186,246.93L299.06851453726455,242.09550000000002L302.59431306306305,243.4935L306.492628992629,238.10250000000002L310.27027027027026,243.93L314.17383292383295,234.19650000000001L317.95147420147424,233.69400000000002L321.8550368550369,239.41649999999998L325.7585995085995,238.32600000000002L329.5362407862408,237.2475L333.4398034398034,236.058L337.22269144144144,232.95749999999998L341.1262540950041,236.43599999999998L345.02981674856676,233.9235L348.68153665028666,231.312L352.57985257985257,232.1505L356.35749385749386,232.0575L360.2610565110565,230.6055L364.0386977886978,234.5145L367.9422604422604,236.4675L371.8458230958231,234.489L375.62346437346434,235.635L379.52702702702703,235.8855L383.30991502866505,231.81L387.2134776822277,236.0145L391.1170403357903,232.9485L394.64283886158887,228.6855L398.5411547911548,232.20749999999998L402.3187960687961,227.2575L406.2223587223587,222.528L410,227.71499999999997" data-legend="csv" style="stroke: rgb(148, 103, 189); fill: none;"></path></g></g><g transform="translate(20, 150)"><text transform="rotate(-90)" x="-50" y="0" dy="1em" class="axis-label y-axis-label" style="text-anchor: middle; font-weight: bold;">% of Stack Overflow questions that month</text></g><g class="legend" transform="translate(530, 30)" style="font-size: 12px;"><text class="legend-title" style="font-weight: bold;">Tag</text><g class="legend-items" transform="translate(0,20)"><text y="0em" x="1em">json</text><text y="1em" x="1em">xml</text><text y="2em" x="1em">csv</text><text y="3em" x="1em">yaml</text><text y="4em" x="1em">protocol-buffers</text><circle cy="-0.25em" cx="0" r="0.4em" style="fill: rgb(31, 119, 180);"></circle><circle cy="0.75em" cx="0" r="0.4em" style="fill: rgb(255, 127, 14);"></circle><circle cy="1.75em" cx="0" r="0.4em" style="fill: rgb(148, 103, 189);"></circle><circle cy="2.75em" cx="0" r="0.4em" style="fill: rgb(214, 39, 40);"></circle><circle cy="3.75em" cx="0" r="0.4em" style="fill: rgb(44, 160, 44);"></circle></g><rect class="legend-box"></rect></g></svg>
            